<svg width="20" height="16" viewBox="0 0 20 16" fill="none" xmlns="http://www.w3.org/2000/svg">
<path d="M7.56 0V1.38C6.73 1.05 5.84 0.88 4.95 0.88C3.16 0.88 1.37 1.56 0 2.93L3.33 6.26H4.44V7.37C5.3 8.23 6.42 8.68 7.55 8.73V11H4.56V14C4.56 15.1 5.46 16 6.56 16H16.56C18.22 16 19.56 14.66 19.56 13V0L7.56 0ZM6.45 6.41V4.26H4.17L3.13 3.22C3.7 3 4.32 2.88 4.95 2.88C6.29 2.88 7.54 3.4 8.49 4.34L9.9 5.75L9.7 5.95C9.19 6.46 8.51 6.75 7.78 6.75C7.31 6.75 6.85 6.63 6.45 6.41ZM17.56 13C17.56 13.55 17.11 14 16.56 14C16.01 14 15.56 13.55 15.56 13V11H9.56V8.41C10.13 8.18 10.66 7.84 11.12 7.38L11.32 7.18L14.15 10H15.56V8.59L9.56 2.62V2H17.56V13Z" fill="#252525"/>
</svg>
