<svg width="14" height="18" viewBox="0 0 14 18" fill="none" xmlns="http://www.w3.org/2000/svg">
<path d="M12.9 9.04504C11.5917 5.64504 6.93333 5.46171 8.05833 0.520039C8.14167 0.153372 7.75 -0.129961 7.43333 0.0617056C4.40833 1.84504 2.23333 5.42004 4.05833 10.1034C4.20833 10.4867 3.75833 10.845 3.43333 10.595C1.925 9.45337 1.76667 7.81171 1.9 6.63671C1.95 6.20337 1.38333 5.99504 1.14167 6.35337C0.575 7.22004 0 8.62004 0 10.7284C0.316667 15.395 4.25833 16.8284 5.675 17.0117C7.7 17.27 9.89167 16.895 11.4667 15.4534C13.2 13.845 13.8333 11.2784 12.9 9.04504ZM5.16667 13.2367C6.36667 12.945 6.98333 12.0784 7.15 11.3117C7.425 10.12 6.35 8.95337 7.075 7.07004C7.35 8.62837 9.8 9.60337 9.8 11.3034C9.86667 13.4117 7.58333 15.22 5.16667 13.2367Z" fill="#252525"/>
</svg>
