<svg width="18" height="18" viewBox="0 0 18 18" fill="none" xmlns="http://www.w3.org/2000/svg">
<path d="M13.24 8.50889L14.81 6.93889L11.06 3.18889L9.49 4.75889L5.35 0.628891C4.57 -0.151109 3.3 -0.151109 2.52 0.628891L0.62 2.52889C-0.16 3.30889 -0.16 4.57889 0.62 5.35889L4.75 9.48889L0 14.2489L0 17.9989H3.75L8.51 13.2389L12.64 17.3689C13.59 18.3189 14.87 17.9689 15.47 17.3689L17.37 15.4689C18.15 14.6889 18.15 13.4189 17.37 12.6389L13.24 8.50889ZM6.18 8.06889L2.04 3.93889L3.93 2.03889L5.2 3.30889L4.02 4.49889L5.43 5.90889L6.62 4.71889L8.07 6.16889L6.18 8.06889ZM14.06 15.9589L9.93 11.8289L11.83 9.92889L13.28 11.3789L12.09 12.5689L13.5 13.9789L14.69 12.7889L15.96 14.0589L14.06 15.9589Z" fill="#CBFE01"/>
<path d="M17.71 4.03889C18.1 3.64889 18.1 3.01889 17.71 2.62889L15.37 0.288891C14.9 -0.181109 14.25 -0.00110886 13.96 0.288891L12.13 2.11889L15.88 5.86889L17.71 4.03889Z" fill="#CBFE01"/>
</svg>
